<!-- Google Material icon "visibility_off", recolored for OpenMS Viewer. SPDX-License-Identifier: Apache-2.0 -->
<svg xmlns="http://www.w3.org/2000/svg" viewBox="0 0 24 24"><path fill="#59b4df" d="M12 7a5 5 0 0 1 4.64 6.83l2.92 2.92A11.8 11.8 0 0 0 23 12c-1.73-4.39-6-7.5-11-7.5-1.4 0-2.74.25-3.98.7l2.16 2.16A5 5 0 0 1 12 7zM2 4.27l2.74 2.74A11.8 11.8 0 0 0 1 12c1.73 4.39 6 7.5 11 7.5 1.55 0 3.03-.3 4.38-.84L19.73 22 21 20.73 3.27 3 2 4.27zM7.53 9.8l1.55 1.55A3 3 0 0 0 12.65 14.92l1.55 1.55A5 5 0 0 1 7.53 9.8zm4.31-.78 3.15 3.15.02-.16a3 3 0 0 0-3-3l-.17.01z"/></svg>
